<svg width="21" height="26" viewBox="0 0 21 26" fill="none" xmlns="http://www.w3.org/2000/svg">
<path d="M14.7706 2.6991C14.7771 4.9156 13.0135 7.30597 10.5492 7.30272C10.1637 4.94322 12.3851 2.72347 14.7706 2.6991Z" fill="black"/>
<path d="M4.46579 21.8351C5.17454 22.7077 6.23931 23.5527 7.46486 23.5527C8.16212 23.5527 8.75439 23.2277 9.39095 22.9905C9.97665 22.776 10.5968 22.6671 11.2219 22.6655C11.824 22.6622 12.4228 22.7776 12.979 23.0067C13.2743 23.1302 13.5663 23.2619 13.8666 23.3756C14.1717 23.4926 14.4949 23.5527 14.8214 23.5527C15.4252 23.5462 16.0142 23.3577 16.508 23.0149C17.9452 22.0399 19.0099 20.3271 19.7646 18.8272C19.8401 18.6777 19.9123 18.5266 19.9845 18.3771C20.1042 18.1269 19.9156 17.81 19.5809 17.628C18.1043 16.8252 17.2397 15.5837 17.0953 13.871C16.9509 12.1582 17.6236 10.8062 18.9738 9.82473L19.2396 9.60861C19.3873 9.48836 19.3069 9.15523 19.0296 8.89523C18.0075 7.89911 16.6409 7.32873 15.207 7.30273C14.9281 7.30273 14.6508 7.32548 14.3768 7.37098C13.1299 7.58223 12.1292 8.17048 10.9545 8.17048C10.5984 8.17048 10.2441 8.11523 9.90447 8.00798C8.92009 7.69598 7.94228 7.30273 6.89556 7.30273C6.78072 7.30273 6.66423 7.30273 6.54775 7.31736C5.25657 7.45386 4.05236 8.02098 3.13197 8.92773C1.31743 10.699 1.05986 13.4501 1.51267 15.7755C1.94743 18.0277 3.01712 20.0574 4.46579 21.8351Z" fill="black"/>
</svg>
