<svg width="21" height="22" viewBox="0 0 21 22" fill="none" xmlns="http://www.w3.org/2000/svg">
<path d="M5.40028 4.90767C5.58161 4.94681 5.77101 4.91735 5.9319 4.82499L7.58694 3.87487C7.74895 3.78187 7.87042 3.63175 7.92758 3.4539L8.38164 2.04105C8.58101 1.42069 9.15809 1 9.8097 1H11.3983C12.0499 1 12.6269 1.42063 12.8264 2.04092L13.2807 3.45409C13.3378 3.63191 13.4593 3.782 13.6213 3.87499L15.2762 4.82507C15.4371 4.91743 15.6265 4.94689 15.8079 4.90776L17.252 4.59609C17.8889 4.45863 18.5417 4.74806 18.8675 5.31233L19.6618 6.68812C19.9876 7.25243 19.9118 7.96254 19.4742 8.44539L18.5125 9.50662C18.3875 9.64457 18.3183 9.82408 18.3183 10.0102V11.9902C18.3183 12.1764 18.3875 12.3558 18.5125 12.4938L19.4742 13.5552C19.9116 14.038 19.9874 14.7481 19.6616 15.3123L18.8673 16.6881C18.5415 17.2524 17.8886 17.5419 17.2517 17.4043L15.8075 17.0925C15.6261 17.0534 15.4367 17.0828 15.2758 17.1752L13.6213 18.125C13.4593 18.218 13.3378 18.3681 13.2807 18.5459L12.8264 19.9591C12.6269 20.5794 12.0499 21 11.3983 21H9.8097C9.15809 21 8.58101 20.5793 8.38164 19.9589L7.92758 18.5461C7.87042 18.3682 7.74895 18.2181 7.58695 18.1251L5.93238 17.1753C5.77147 17.0829 5.58205 17.0535 5.40069 17.0926L3.9569 17.4043C3.31997 17.5419 2.6671 17.2524 2.3413 16.6881L1.54698 15.3123C1.2212 14.7481 1.29695 14.038 1.73444 13.5552L2.69551 12.4945C2.82049 12.3565 2.88972 12.177 2.88972 11.9909V10.0097C2.88972 9.82349 2.82048 9.64397 2.69546 9.50602L1.73429 8.44539C1.29673 7.96254 1.22094 7.25244 1.54675 6.68812L2.34106 5.31233C2.66684 4.74806 3.31964 4.45864 3.95654 4.59609L5.40028 4.90767Z" fill="#FFF1F0" stroke="black" stroke-width="2"/>
<circle cx="10.604" cy="11" r="3.5" fill="#FF4DAB" stroke="black" stroke-width="2"/>
</svg>
