<svg width="20" height="21" viewBox="0 0 20 21" fill="none" xmlns="http://www.w3.org/2000/svg">
<path d="M8.01562 19.25C8.54447 19.7168 9.23916 20 9.99999 20C10.7608 20 11.4555 19.7168 11.9844 19.25" stroke="black" stroke-width="2" stroke-linecap="round"/>
<path d="M10 1C6.83248 1 4.25 3.56488 4.25 6.72881V10.6697C4.25 11.9666 3.62126 13.183 2.56324 13.933L1.92116 14.3881C1.3248 14.8109 1.62389 15.75 2.3549 15.75H17.6451C18.3761 15.75 18.6752 14.8109 18.0788 14.3881L17.4368 13.933C16.3787 13.183 15.75 11.9666 15.75 10.6697V6.72881C15.75 3.56488 13.1675 1 10 1Z" fill="#FFF1F0" stroke="black" stroke-width="2"/>
</svg>
