<svg width="19" height="21" viewBox="0 0 19 21" fill="none" xmlns="http://www.w3.org/2000/svg">
<path d="M1 10.1213V18C1 18.8284 1.67157 19.5 2.5 19.5H6C6.82843 19.5 7.5 18.8284 7.5 18V13.75C7.5 13.3358 7.83579 13 8.25 13H10.75C11.1642 13 11.5 13.3358 11.5 13.75V18C11.5 18.8284 12.1716 19.5 13 19.5H16.5C17.3284 19.5 18 18.8284 18 18V10.1213C18 9.7235 17.842 9.34196 17.5607 9.06066L10.5607 2.06066C9.97487 1.47487 9.02513 1.47487 8.43934 2.06066L1.43934 9.06066C1.15804 9.34196 1 9.7235 1 10.1213Z" fill="#FFF1F0" stroke="black" stroke-width="2"/>
</svg>
