<svg width="237" height="237" viewBox="0 0 237 237" fill="none" xmlns="http://www.w3.org/2000/svg">
<path d="M126.618 106.05C127.362 102.204 128.66 98.8004 130.85 95.7707C137.742 86.2234 153.042 83.2295 162.314 95.492C165.647 99.8993 167.048 104.924 167.164 110.394C167.327 118.178 165.034 125.002 159.157 130.265C150.884 137.674 139.8 136.985 132.486 128.636C129.572 125.308 127.653 121.462 126.805 117.103C126.761 116.868 126.702 116.633 126.586 116.127C125.945 119.965 124.623 123.238 122.549 126.212C119.515 130.559 115.586 133.645 110.354 134.875C104.49 136.253 99.2663 134.64 94.7714 130.926C87.7045 125.089 84.8897 117.409 85.8253 108.34C86.4026 102.75 88.4331 97.7733 92.3627 93.6725C100.907 84.7623 113.456 85.1724 121.649 94.9027C124.157 97.8807 125.635 101.368 126.363 105.182C126.407 105.413 126.491 105.632 126.614 106.054L126.618 106.05ZM110.832 100.106C108.101 100.063 105.911 102.153 105.883 104.836C105.855 107.587 107.906 109.765 110.585 109.829C113.32 109.892 115.594 107.75 115.645 105.059C115.697 102.268 113.643 100.15 110.832 100.106ZM155.757 104.96C155.682 102.029 153.615 100.051 150.709 100.13C148.029 100.202 145.967 102.36 146.023 105.023C146.083 107.826 148.28 109.884 151.147 109.825C153.715 109.773 155.825 107.543 155.757 104.956V104.96Z" fill="#A8FFC7"/>
<path d="M170.261 149.714V96.0732H188.559C200.786 96.0732 206.364 104.597 206.364 114.005C206.364 123.413 200.786 131.857 188.559 131.857H184.785V149.71H170.261V149.714ZM186.919 108.459H184.785V119.475H186.919C189.789 119.475 191.677 117.465 191.677 113.925C191.677 110.386 189.789 108.455 186.919 108.455V108.459Z" fill="#FF4DAB"/>
<path d="M30.6323 149.714V96.0732H51.8009C62.3873 96.0732 66.2412 103.068 66.2412 109.745C66.2412 116.422 62.4669 120.845 57.2991 122.051C62.9606 122.935 66.9817 128.406 66.9817 135.158C66.9817 142.878 63.0442 149.714 52.5415 149.714H30.6323ZM45.1561 116.74H47.7002C50.3279 116.74 51.4745 114.889 51.4745 112.158C51.4745 109.586 50.3239 107.655 47.7002 107.655H45.1561V116.744V116.74ZM45.1561 138.136H48.0266C50.5707 138.136 52.211 136.285 52.211 133.231C52.211 130.416 50.5707 128.326 48.0266 128.326H45.1561V138.136Z" fill="#FF4DAB"/>
<path d="M68.4628 149.714V96.0732H82.9866V137.328H166.503V149.714H68.4628Z" fill="#FF4DAB"/>
</svg>
